#N canvas 9 23 360 687 10;
#X obj 27 30 vradio 27 1 0 24 key empty empty 0 -8 0 10 -262144 -1
-1 12;
#X text 65 36 C Major;
#X text 65 64 C# Major;
#X text 66 91 D Major;
#X text 66 144 E Major;
#X text 67 172 F Major;
#X text 66 225 G Major;
#X text 64 279 A Major;
#X text 65 334 B Major;
#X text 63 359 C Minor;
#X text 63 386 C# Minor;
#X text 64 414 D Minor;
#X text 63 471 E Minor;
#X text 63 495 F Minor;
#X text 62 523 F# Minor;
#X text 62 551 G Minor;
#X text 62 576 G# Minor;
#X text 63 604 A Minor;
#X text 62 656 B Minor;
#X text 23 6 Select a Key;
#N canvas 772 48 508 329 sendKey 0;
#X obj 62 47 r key;
#X floatatom 62 68 5 0 0 0 - - -;
#X obj 62 93 sel 0 1 2 3 4 5 6 7 8 9 10 11 12 13 14 15 16 17 18 19
20 21 22 23, f 66;
#X obj 115 172 0;
#X obj 141 172 -1;
#X obj 165 171 -2;
#X obj 264 249 s keyCorrect;
#X obj 189 171 -3;
#X obj 214 171 -4;
#X obj 239 172 -5;
#X obj 263 173 -6;
#X obj 287 171 -7;
#X obj 311 172 -8;
#X obj 336 171 -9;
#X obj 361 171 -10;
#X obj 386 171 -11;
#X connect 0 0 1 0;
#X connect 1 0 2 0;
#X connect 2 0 3 0;
#X connect 2 1 4 0;
#X connect 2 2 5 0;
#X connect 2 3 7 0;
#X connect 2 4 8 0;
#X connect 2 5 9 0;
#X connect 2 6 10 0;
#X connect 2 7 11 0;
#X connect 2 8 12 0;
#X connect 2 9 13 0;
#X connect 2 10 14 0;
#X connect 2 11 15 0;
#X connect 2 12 3 0;
#X connect 2 13 4 0;
#X connect 2 14 5 0;
#X connect 2 15 7 0;
#X connect 2 16 8 0;
#X connect 2 17 9 0;
#X connect 2 18 10 0;
#X connect 2 19 11 0;
#X connect 2 20 12 0;
#X connect 2 21 13 0;
#X connect 2 22 14 0;
#X connect 2 23 15 0;
#X connect 3 0 6 0;
#X connect 4 0 6 0;
#X connect 5 0 6 0;
#X connect 7 0 6 0;
#X connect 8 0 6 0;
#X connect 9 0 6 0;
#X connect 10 0 6 0;
#X connect 11 0 6 0;
#X connect 12 0 6 0;
#X connect 13 0 6 0;
#X connect 14 0 6 0;
#X connect 15 0 6 0;
#X restore 172 611 pd sendKey;
#N canvas 279 373 910 337 processKey 0;
#X floatatom 217 60 5 0 0 0 - - -;
#X text 146 55 pitch;
#X text 253 59 envelope;
#X obj 93 40 sigmund~ -hop 4096 pitch env;
#X obj 93 9 adc~;
#N canvas 479 151 450 300 2avg 0;
#X obj 137 97 t f f;
#X obj 137 139 * 0.5;
#X obj 146 59 inlet;
#X obj 150 164 outlet;
#X obj 137 118 +;
#X connect 0 0 4 0;
#X connect 0 1 4 1;
#X connect 1 0 3 0;
#X connect 2 0 0 0;
#X connect 4 0 1 0;
#X restore 93 72 pd 2avg;
#N canvas 479 151 450 300 2avg 0;
#X obj 137 97 t f f;
#X obj 137 139 * 0.5;
#X obj 146 59 inlet;
#X obj 150 164 outlet;
#X obj 137 118 +;
#X connect 0 0 4 0;
#X connect 0 1 4 1;
#X connect 1 0 3 0;
#X connect 2 0 0 0;
#X connect 4 0 1 0;
#X restore 93 91 pd 2avg;
#X floatatom 94 208 5 0 0 0 - - -;
#X obj 94 266 mod 12;
#X floatatom 94 284 5 0 0 0 - - -;
#X obj 192 127 r keyCorrect;
#X floatatom 192 149 5 0 0 0 - - -;
#X obj 94 227 +;
#X floatatom 94 247 5 0 0 0 - - -;
#X floatatom 48 158 5 0 0 0 - - -;
#X obj 530 239 sel 0 1 2 3 4 5 6 7 8 9 10 11;
#X text 534 219 minor;
#X text 314 224 major;
#X text 18 10 takes input;
#X text 28 73 finds avg;
#X obj 459 144 pack f f;
#X obj 458 7 r key;
#X floatatom 458 31 5 0 0 0 - - -;
#X obj 458 57 <= 11;
#X floatatom 458 80 5 0 0 0 - - -;
#X obj 459 167 route 1 0;
#X obj 400 100 t b f;
#X floatatom 316 199 5 0 0 0 - - -;
#X floatatom 531 195 5 0 0 0 - - -;
#X obj 354 221 print major;
#X obj 580 217 print minor;
#N canvas 479 151 450 300 2avg 0;
#X obj 137 97 t f f;
#X obj 137 139 * 0.5;
#X obj 146 59 inlet;
#X obj 150 164 outlet;
#X obj 137 118 +;
#X connect 0 0 4 0;
#X connect 0 1 4 1;
#X connect 1 0 3 0;
#X connect 2 0 0 0;
#X connect 4 0 1 0;
#X restore 93 109 pd 2avg;
#N canvas 479 151 450 300 2avg 0;
#X obj 137 97 t f f;
#X obj 137 139 * 0.5;
#X obj 146 59 inlet;
#X obj 150 164 outlet;
#X obj 137 118 +;
#X connect 0 0 4 0;
#X connect 0 1 4 1;
#X connect 1 0 3 0;
#X connect 2 0 0 0;
#X connect 4 0 1 0;
#X restore 93 127 pd 2avg;
#N canvas 479 151 450 300 2avg 0;
#X obj 137 97 t f f;
#X obj 137 139 * 0.5;
#X obj 146 59 inlet;
#X obj 150 164 outlet;
#X obj 137 118 +;
#X connect 0 0 4 0;
#X connect 0 1 4 1;
#X connect 1 0 3 0;
#X connect 2 0 0 0;
#X connect 4 0 1 0;
#X restore 93 145 pd 2avg;
#X obj 305 250 sel 0 1 2 3 4 5 6 7 8 9 10 11;
#N canvas 841 51 421 165 transposeKey 0;
#X obj 65 46 inlet major;
#X obj 279 45 inlet minor;
#X obj 172 46 inlet fourth;
#X msg 64 89 \; transpose 4 \;;
#X msg 173 89 \; transpose 5 \;;
#X msg 280 88 \; transpose 3 \;;
#X connect 0 0 3 0;
#X connect 1 0 5 0;
#X connect 2 0 4 0;
#X restore 472 305 pd transposeKey;
#X connect 3 0 5 0;
#X connect 3 1 0 0;
#X connect 4 0 3 0;
#X connect 4 1 3 0;
#X connect 5 0 6 0;
#X connect 6 0 31 0;
#X connect 7 0 12 0;
#X connect 8 0 9 0;
#X connect 9 0 26 0;
#X connect 10 0 11 0;
#X connect 11 0 12 1;
#X connect 12 0 13 0;
#X connect 13 0 8 0;
#X connect 14 0 12 0;
#X connect 15 0 35 2;
#X connect 15 2 35 2;
#X connect 15 3 35 0;
#X connect 15 5 35 2;
#X connect 15 7 35 2;
#X connect 15 8 35 0;
#X connect 15 10 35 0;
#X connect 20 0 25 0;
#X connect 21 0 22 0;
#X connect 22 0 23 0;
#X connect 23 0 24 0;
#X connect 24 0 20 0;
#X connect 25 0 27 0;
#X connect 25 1 28 0;
#X connect 26 0 20 0;
#X connect 26 1 20 1;
#X connect 27 0 29 0;
#X connect 27 0 34 0;
#X connect 28 0 15 0;
#X connect 28 0 30 0;
#X connect 31 0 32 0;
#X connect 32 0 33 0;
#X connect 33 0 7 0;
#X connect 34 0 35 0;
#X connect 34 2 35 2;
#X connect 34 4 35 2;
#X connect 34 5 35 0;
#X connect 34 7 35 0;
#X connect 34 9 35 2;
#X connect 34 11 35 2;
#X restore 172 638 pd processKey;
#N canvas 450 23 830 687 algorithm 0;
#X floatatom 25 74 0 0 0 0 - - -;
#X obj 87 389 *~;
#X obj 210 326 line~;
#X floatatom 242 143 0 0 0 0 - - -;
#X obj 210 300 pack 0 200;
#X obj 243 119 r window;
#X obj 25 53 r transpose;
#X obj 24 174 exp;
#X floatatom 23 200 6 0 0 0 - - -;
#X obj 24 290 /;
#X obj 151 220 * 0.001;
#X obj 319 396 line~;
#X obj 319 371 pack 0 200;
#X floatatom 319 320 0 0 0 0 - - -;
#X obj 319 294 r delay;
#X obj 87 415 +~;
#X obj 24 457 cos~;
#X obj 25 483 *~;
#X obj 23 512 +~;
#X obj 111 348 wrap~;
#X obj 256 391 *~;
#X obj 256 424 +~;
#X obj 193 451 cos~;
#X obj 193 478 *~;
#X obj 151 247 t b f;
#X floatatom 24 316 6 0 0 0 - - -;
#X obj 111 321 +~ 0.5;
#X obj 24 373 -~ 0.5;
#X obj 24 399 *~ 0.5;
#X obj 193 390 -~ 0.5;
#X obj 193 410 *~ 0.5;
#X obj 24 227 - 1;
#X obj 24 148 * 0.05776;
#X obj 24 253 * -1;
#X text 58 117 <-- transposition;
#X text 101 130 (halftones);
#X text 87 194 speed;
#X text 86 208 change;
#X text 286 142 <--window (msec);
#X text 59 283 tape head;
#X obj 319 347 max 1.5;
#X text 322 253 delay;
#X text 320 271 (msec);
#X obj 242 170 max 1;
#X text 60 296 rotation freq;
#X obj 20 -11 adc~;
#X obj 20 12 delwrite~ mus1331 5000;
#X obj 87 441 vd~ mus1331;
#X obj 256 453 vd~ mus1331;
#X obj 408 344 adc~ 1 2;
#X obj 62 559 *~ 0;
#X obj 405 427 *~ 0.5;
#X obj 405 456 *~ 0;
#X obj 120 467 vsl 15 50 0 106 0 0 empty empty empty 0 -9 0 10 -262144
-1 -1 4200 1;
#X obj 121 531 dbtopow;
#X obj 121 555 pack f 100;
#X msg 121 579 \$1 \$2;
#X obj 121 603 line;
#X obj 24 349 phasor~;
#X text 416 54 major third;
#X text 323 54 major fourth;
#X floatatom 166 296 5 0 0 0 - - -;
#X floatatom 120 643 5 0 0 0 - - -;
#X obj 21 109 -12;
#N canvas 0 23 450 300 mix 0;
#X obj 236 68 r~ orig;
#X obj 57 97 lop~ 5000;
#X obj 107 73 r lopCutoff;
#X obj 247 189 rev3~ 100 90 3000 20;
#X obj 67 263 dac~ 1 2;
#X obj 247 240 *~;
#X obj 64 219 *~;
#X obj 79 190 r dryLevel;
#X obj 266 215 r wetLevel;
#X obj 56 51 r~ shift;
#X connect 0 0 3 0;
#X connect 0 0 6 0;
#X connect 1 0 3 0;
#X connect 1 0 6 0;
#X connect 2 0 1 1;
#X connect 3 0 5 0;
#X connect 5 0 4 0;
#X connect 5 0 4 1;
#X connect 6 0 4 0;
#X connect 6 0 4 1;
#X connect 7 0 6 1;
#X connect 8 0 5 1;
#X connect 9 0 1 0;
#X restore 387 612 pd mix;
#X text 404 323 voice in;
#X text 231 78 minor third;
#X obj 22 615 dac~;
#X obj 229 -3 loadbang;
#X msg 410 19 \; transpose 4 \;;
#X msg 317 20 \; transpose 5 \;;
#X msg 227 22 \; transpose 3 \; window 100 \; delay 0;
#X connect 0 0 63 0;
#X connect 1 0 15 0;
#X connect 2 0 1 1;
#X connect 2 0 20 1;
#X connect 3 0 43 0;
#X connect 4 0 2 0;
#X connect 5 0 3 0;
#X connect 6 0 0 0;
#X connect 7 0 8 0;
#X connect 8 0 31 0;
#X connect 9 0 25 0;
#X connect 10 0 24 0;
#X connect 11 0 15 1;
#X connect 11 0 21 1;
#X connect 12 0 11 0;
#X connect 13 0 40 0;
#X connect 14 0 13 0;
#X connect 15 0 47 0;
#X connect 16 0 17 0;
#X connect 17 0 18 0;
#X connect 18 0 50 0;
#X connect 18 0 67 0;
#X connect 18 0 67 1;
#X connect 19 0 20 0;
#X connect 19 0 29 0;
#X connect 20 0 21 0;
#X connect 21 0 48 0;
#X connect 22 0 23 0;
#X connect 23 0 18 1;
#X connect 24 0 9 0;
#X connect 24 1 9 1;
#X connect 25 0 58 0;
#X connect 26 0 19 0;
#X connect 27 0 28 0;
#X connect 28 0 16 0;
#X connect 29 0 30 0;
#X connect 30 0 22 0;
#X connect 31 0 33 0;
#X connect 32 0 7 0;
#X connect 33 0 9 0;
#X connect 40 0 12 0;
#X connect 43 0 10 0;
#X connect 43 0 4 0;
#X connect 45 0 46 0;
#X connect 47 0 17 1;
#X connect 48 0 23 1;
#X connect 49 0 51 0;
#X connect 49 1 51 0;
#X connect 51 0 52 0;
#X connect 53 0 54 0;
#X connect 54 0 55 0;
#X connect 55 0 56 0;
#X connect 56 0 57 0;
#X connect 57 0 50 1;
#X connect 57 0 62 0;
#X connect 58 0 1 0;
#X connect 58 0 27 0;
#X connect 58 0 26 0;
#X connect 63 0 32 0;
#X connect 68 0 71 0;
#X restore 172 666 pd algorithm;
#X text 67 119 Eb Major;
#X text 65 253 Ab Major;
#X text 66 199 F# Major;
#X text 64 305 Bb Major;
#X text 62 628 A# Minor;
#X text 63 441 D# Minor;
